<svg xmlns="http://www.w3.org/2000/svg" xmlns:xlink="http://www.w3.org/1999/xlink" width="1000" zoomAndPan="magnify" viewBox="0 0 750 749.999995" height="1000" preserveAspectRatio="xMidYMid meet" version="1.0"><defs><g/><clipPath id="a7f521d3af"><path d="M 104.214844 296 L 281.214844 296 L 281.214844 325 L 104.214844 325 Z M 104.214844 296 " clip-rule="nonzero"/></clipPath><clipPath id="f085ab456e"><path d="M 455.667969 296 L 632.398438 296 L 632.398438 325 L 455.667969 325 Z M 455.667969 296 " clip-rule="nonzero"/></clipPath></defs><g fill="#ad7300" fill-opacity="1"><g transform="translate(275.708047, 316.368329)"><g><path d="M 110.515625 -9.71875 C 110.691406 -9.976562 110.972656 -10.082031 111.359375 -10.03125 C 111.742188 -9.988281 111.894531 -9.753906 111.8125 -9.328125 C 109.914062 -6.472656 107.753906 -4.203125 105.328125 -2.515625 C 102.910156 -0.835938 100.320312 0 97.5625 0 C 93.757812 0 90.519531 -1.078125 87.84375 -3.234375 C 85.164062 -5.398438 82.851562 -8.316406 80.90625 -11.984375 C 78.96875 -15.648438 77.347656 -19.898438 76.046875 -24.734375 C 74.753906 -29.578125 73.546875 -34.632812 72.421875 -39.90625 C 72.421875 -40.425781 72.59375 -40.816406 72.9375 -41.078125 C 73.375 -41.242188 73.847656 -41.4375 74.359375 -41.65625 C 74.878906 -41.875 75.617188 -42.195312 76.578125 -42.625 C 76.828125 -42.707031 77.191406 -42.679688 77.671875 -42.546875 C 78.148438 -42.421875 78.773438 -42.296875 79.546875 -42.171875 C 80.328125 -42.046875 81.253906 -41.984375 82.328125 -41.984375 C 83.410156 -41.984375 84.6875 -42.15625 86.15625 -42.5 C 90.644531 -43.53125 94.140625 -45.597656 96.640625 -48.703125 C 99.148438 -51.816406 100.40625 -55.707031 100.40625 -60.375 C 100.40625 -65.90625 98.765625 -70.484375 95.484375 -74.109375 C 92.203125 -77.734375 87.671875 -79.765625 81.890625 -80.203125 C 79.460938 -77.429688 77.320312 -73.863281 75.46875 -69.5 C 73.613281 -65.144531 71.910156 -60.070312 70.359375 -54.28125 C 67.847656 -44.78125 64.882812 -36.597656 61.46875 -29.734375 C 58.0625 -22.867188 54.285156 -17.234375 50.140625 -12.828125 C 45.992188 -8.421875 41.5 -5.179688 36.65625 -3.109375 C 31.820312 -1.035156 26.726562 0 21.375 0 C 18.78125 0 16.554688 -0.382812 14.703125 -1.15625 C 12.847656 -1.9375 11.289062 -3.019531 10.03125 -4.40625 C 8.78125 -5.789062 7.851562 -7.367188 7.25 -9.140625 C 6.644531 -10.910156 6.34375 -12.785156 6.34375 -14.765625 C 6.34375 -18.046875 7.226562 -21.304688 9 -24.546875 C 10.769531 -27.785156 13.125 -30.140625 16.0625 -31.609375 C 16.84375 -31.785156 17.144531 -31.441406 16.96875 -30.578125 C 14.375 -29.285156 12.453125 -27.445312 11.203125 -25.0625 C 9.953125 -22.6875 9.328125 -20.207031 9.328125 -17.625 C 9.328125 -13.132812 10.664062 -9.722656 13.34375 -7.390625 C 16.019531 -5.054688 19.863281 -3.890625 24.875 -3.890625 C 29.363281 -3.890625 33.441406 -4.554688 37.109375 -5.890625 C 40.785156 -7.234375 44.132812 -9.566406 47.15625 -12.890625 C 50.1875 -16.210938 52.992188 -20.722656 55.578125 -26.421875 C 58.171875 -32.128906 60.675781 -39.34375 63.09375 -48.0625 C 65.164062 -55.488281 67.410156 -61.859375 69.828125 -67.171875 C 72.253906 -72.484375 75.109375 -76.867188 78.390625 -80.328125 C 62.148438 -79.984375 49.796875 -73.804688 41.328125 -61.796875 C 41.066406 -61.628906 40.785156 -61.628906 40.484375 -61.796875 C 40.179688 -61.972656 40.117188 -62.273438 40.296875 -62.703125 C 44.441406 -68.753906 49.96875 -73.613281 56.875 -77.28125 C 63.789062 -80.957031 72.128906 -82.96875 81.890625 -83.3125 C 83.359375 -84.4375 84.910156 -85.40625 86.546875 -86.21875 C 88.191406 -87.039062 90.003906 -87.671875 91.984375 -88.109375 C 92.421875 -88.109375 92.640625 -87.957031 92.640625 -87.65625 C 92.640625 -87.351562 92.421875 -87.113281 91.984375 -86.9375 C 89.484375 -86.25 87.195312 -85.082031 85.125 -83.4375 C 88.144531 -83.4375 90.90625 -82.851562 93.40625 -81.6875 C 95.914062 -80.519531 98.078125 -78.984375 99.890625 -77.078125 C 101.703125 -75.179688 103.101562 -73.046875 104.09375 -70.671875 C 105.09375 -68.296875 105.59375 -65.8125 105.59375 -63.21875 C 105.59375 -59.769531 104.8125 -56.578125 103.25 -53.640625 C 101.695312 -50.703125 99.644531 -48.195312 97.09375 -46.125 C 94.550781 -44.050781 91.617188 -42.472656 88.296875 -41.390625 C 84.972656 -40.316406 81.539062 -39.863281 78 -40.03125 C 79.375 -32.601562 80.882812 -26.554688 82.53125 -21.890625 C 84.175781 -17.234375 85.988281 -13.585938 87.96875 -10.953125 C 89.957031 -8.316406 92.09375 -6.519531 94.375 -5.5625 C 96.664062 -4.613281 99.109375 -4.140625 101.703125 -4.140625 C 103.515625 -4.140625 105.085938 -4.59375 106.421875 -5.5 C 107.765625 -6.40625 109.128906 -7.8125 110.515625 -9.71875 Z M 110.515625 -9.71875 "/></g></g></g><g fill="#ad7300" fill-opacity="1"><g transform="translate(386.334255, 316.368329)"><g><path d="M 74.234375 -79.15625 C 68.273438 -79.15625 62.722656 -77.925781 57.578125 -75.46875 C 52.441406 -73.007812 47.992188 -69.640625 44.234375 -65.359375 C 40.484375 -61.085938 37.550781 -55.992188 35.4375 -50.078125 C 33.320312 -44.160156 32.265625 -37.789062 32.265625 -30.96875 C 32.265625 -25.09375 33.320312 -20.640625 35.4375 -17.609375 C 37.550781 -14.585938 40.8125 -13.078125 45.21875 -13.078125 C 50.226562 -13.078125 54.585938 -14.476562 58.296875 -17.28125 C 62.015625 -20.09375 64.609375 -24.09375 66.078125 -29.28125 C 66.160156 -29.800781 66.546875 -30.234375 67.234375 -30.578125 C 67.929688 -30.921875 68.644531 -31.15625 69.375 -31.28125 C 70.113281 -31.414062 70.785156 -31.4375 71.390625 -31.34375 C 71.992188 -31.257812 72.296875 -31.003906 72.296875 -30.578125 C 69.441406 -20.554688 66.113281 -12.066406 62.3125 -5.109375 C 58.519531 1.835938 54.332031 7.46875 49.75 11.78125 C 45.175781 16.101562 40.273438 19.234375 35.046875 21.171875 C 29.816406 23.117188 24.394531 24.09375 18.78125 24.09375 C 14.8125 24.09375 11.359375 23.570312 8.421875 22.53125 C 5.484375 21.5 3.039062 20.078125 1.09375 18.265625 C -0.84375 16.453125 -2.304688 14.359375 -3.296875 11.984375 C -4.296875 9.609375 -4.796875 7.082031 -4.796875 4.40625 C -4.796875 0.6875 -3.953125 -2.660156 -2.265625 -5.640625 C -0.578125 -8.617188 2.289062 -11.054688 6.34375 -12.953125 C 6.78125 -13.128906 7.0625 -13.019531 7.1875 -12.625 C 7.320312 -12.238281 7.257812 -11.875 7 -11.53125 C 2.757812 -9.195312 0.640625 -4.921875 0.640625 1.296875 C 0.640625 7.335938 2.453125 12.257812 6.078125 16.0625 C 9.710938 19.863281 14.898438 21.765625 21.640625 21.765625 C 30.960938 21.765625 39.097656 18.585938 46.046875 12.234375 C 53.003906 5.890625 58.644531 -4.363281 62.96875 -18.53125 C 60.289062 -16.28125 57.265625 -14.398438 53.890625 -12.890625 C 50.523438 -11.378906 46.726562 -10.625 42.5 -10.625 C 36.96875 -10.625 32.816406 -12.195312 30.046875 -15.34375 C 27.285156 -18.5 25.90625 -22.710938 25.90625 -27.984375 C 25.90625 -34.035156 27.242188 -40.320312 29.921875 -46.84375 C 32.609375 -53.363281 36.300781 -59.320312 41 -64.71875 C 45.707031 -70.113281 51.210938 -74.5625 57.515625 -78.0625 C 63.828125 -81.5625 70.609375 -83.3125 77.859375 -83.3125 C 81.660156 -83.3125 84.660156 -82.488281 86.859375 -80.84375 C 89.066406 -79.207031 90.171875 -77.222656 90.171875 -74.890625 C 90.171875 -73.941406 89.953125 -72.816406 89.515625 -71.515625 C 89.085938 -70.222656 88.53125 -68.90625 87.84375 -67.5625 C 87.15625 -66.226562 86.421875 -64.929688 85.640625 -63.671875 C 84.859375 -62.421875 84.164062 -61.320312 83.5625 -60.375 C 83.21875 -60.195312 82.894531 -60.21875 82.59375 -60.4375 C 82.289062 -60.65625 82.179688 -60.9375 82.265625 -61.28125 C 83.484375 -63.1875 84.367188 -64.867188 84.921875 -66.328125 C 85.484375 -67.796875 85.765625 -69.394531 85.765625 -71.125 C 85.765625 -73.457031 84.707031 -75.378906 82.59375 -76.890625 C 80.476562 -78.398438 77.691406 -79.15625 74.234375 -79.15625 Z M 74.234375 -79.15625 "/></g></g></g><g clip-path="url(#a7f521d3af)"><path fill="#ad7300" d="M 108.535156 308.738281 C 113.035156 304.355469 118.277344 301.195312 124.261719 299.257812 C 128.527344 297.710938 132.921875 296.757812 137.445312 296.390625 C 142.273438 296.0625 147.074219 296.320312 151.84375 297.160156 C 162.332031 298.875 172.523438 301.667969 182.414062 305.542969 C 192.195312 309.203125 202.164062 312.253906 212.320312 314.695312 C 216.84375 315.792969 221.421875 316.566406 226.054688 317.007812 C 230.335938 317.394531 234.621094 317.394531 238.902344 317.007812 C 242.65625 316.730469 246.347656 316.105469 249.980469 315.132812 C 253.804688 313.953125 257.5 312.445312 261.054688 310.613281 L 263.492188 309.179688 C 264.605469 308.667969 265.675781 308.078125 266.703125 307.414062 C 270.25 304.988281 273.238281 302.453125 275.566406 300.691406 L 278.667969 298.59375 C 278.992188 298.40625 279.34375 298.3125 279.71875 298.3125 C 280.09375 298.3125 280.445312 298.40625 280.773438 298.59375 C 280.773438 298.59375 281.4375 299.585938 280.773438 302.34375 C 280.773438 303.003906 280.21875 303.667969 279.886719 304.4375 C 277.78125 308.398438 274.863281 311.632812 271.136719 314.140625 C 270.132812 314.945312 269.0625 315.644531 267.921875 316.238281 C 267 316.824219 266.042969 317.335938 265.042969 317.78125 L 263.601562 318.441406 L 261.71875 319.324219 C 258.609375 320.691406 255.394531 321.757812 252.082031 322.523438 C 248.082031 323.53125 244.019531 324.15625 239.898438 324.398438 C 230.015625 324.820312 220.304688 323.71875 210.769531 321.089844 C 200.453125 318.210938 190.335938 314.757812 180.421875 310.722656 C 170.96875 306.734375 161.222656 303.683594 151.179688 301.570312 C 146.640625 300.691406 142.0625 300.289062 137.445312 300.359375 C 133.316406 300.546875 129.253906 301.171875 125.261719 302.234375 C 121.359375 303.238281 117.667969 304.746094 114.183594 306.753906 C 110.640625 308.847656 107.539062 311.605469 103.992188 313.703125 C 105.257812 311.820312 106.769531 310.167969 108.535156 308.738281 Z M 108.535156 308.738281 " fill-opacity="1" fill-rule="nonzero"/></g><g clip-path="url(#f085ab456e)"><path fill="#ad7300" d="M 628.347656 308.738281 C 623.851562 304.355469 618.605469 301.195312 612.621094 299.257812 C 608.355469 297.710938 603.960938 296.757812 599.441406 296.390625 C 594.609375 296.0625 589.808594 296.320312 585.039062 297.160156 C 574.550781 298.875 564.363281 301.667969 554.46875 305.542969 C 544.6875 309.203125 534.71875 312.253906 524.5625 314.695312 C 520.042969 315.792969 515.464844 316.566406 510.828125 317.007812 C 506.546875 317.394531 502.261719 317.394531 497.980469 317.007812 C 494.230469 316.730469 490.535156 316.105469 486.902344 315.132812 C 483.078125 313.953125 479.386719 312.445312 475.828125 310.613281 L 473.390625 309.179688 C 472.277344 308.667969 471.207031 308.078125 470.179688 307.414062 C 466.632812 304.988281 463.644531 302.453125 461.316406 300.691406 L 458.214844 298.59375 C 457.890625 298.40625 457.539062 298.3125 457.164062 298.3125 C 456.789062 298.3125 456.4375 298.40625 456.113281 298.59375 C 456.113281 298.59375 455.449219 299.585938 456.113281 302.34375 C 456.113281 303.003906 456.664062 303.667969 456.996094 304.4375 C 459.101562 308.398438 462.019531 311.632812 465.75 314.140625 C 466.75 314.945312 467.820312 315.644531 468.960938 316.238281 C 469.882812 316.824219 470.84375 317.335938 471.839844 317.78125 L 473.28125 318.441406 L 475.164062 319.324219 C 478.273438 320.691406 481.488281 321.757812 484.800781 322.523438 C 488.800781 323.53125 492.863281 324.15625 496.984375 324.398438 C 506.867188 324.820312 516.578125 323.71875 526.113281 321.089844 C 536.429688 318.210938 546.546875 314.757812 556.464844 310.722656 C 565.914062 306.734375 575.660156 303.683594 585.707031 301.570312 C 590.242188 300.691406 594.820312 300.289062 599.441406 300.359375 C 603.570312 300.546875 607.628906 301.171875 611.625 302.234375 C 615.523438 303.238281 619.214844 304.746094 622.699219 306.753906 C 626.246094 308.847656 629.347656 311.605469 632.890625 313.703125 C 631.625 311.820312 630.113281 310.167969 628.347656 308.738281 Z M 628.347656 308.738281 " fill-opacity="1" fill-rule="nonzero"/></g><g fill="#1f2122" fill-opacity="1"><g transform="translate(177.116331, 390.000001)"><g><path d="M 28.15625 -4.953125 L 28.15625 0 L 4.28125 0 L 4.28125 -31.84375 L 27.515625 -31.84375 L 27.515625 -26.875 L 10.1875 -26.875 L 10.1875 -18.609375 L 25.5625 -18.609375 L 25.5625 -13.734375 L 10.1875 -13.734375 L 10.1875 -4.953125 Z M 28.15625 -4.953125 "/></g></g></g><g fill="#1f2122" fill-opacity="1"><g transform="translate(227.960042, 390.000001)"><g><path d="M 14.140625 0.453125 C 11.691406 0.453125 9.320312 0.101562 7.03125 -0.59375 C 4.738281 -1.289062 2.925781 -2.210938 1.59375 -3.359375 L 3.640625 -7.953125 C 4.941406 -6.921875 6.539062 -6.078125 8.4375 -5.421875 C 10.332031 -4.773438 12.234375 -4.453125 14.140625 -4.453125 C 16.503906 -4.453125 18.269531 -4.832031 19.4375 -5.59375 C 20.613281 -6.351562 21.203125 -7.351562 21.203125 -8.59375 C 21.203125 -9.507812 20.875 -10.257812 20.21875 -10.84375 C 19.5625 -11.4375 18.734375 -11.898438 17.734375 -12.234375 C 16.734375 -12.566406 15.367188 -12.945312 13.640625 -13.375 C 11.210938 -13.945312 9.25 -14.519531 7.75 -15.09375 C 6.25 -15.675781 4.960938 -16.582031 3.890625 -17.8125 C 2.816406 -19.039062 2.28125 -20.695312 2.28125 -22.78125 C 2.28125 -24.539062 2.753906 -26.140625 3.703125 -27.578125 C 4.660156 -29.023438 6.101562 -30.171875 8.03125 -31.015625 C 9.957031 -31.867188 12.3125 -32.296875 15.09375 -32.296875 C 17.039062 -32.296875 18.953125 -32.050781 20.828125 -31.5625 C 22.710938 -31.082031 24.335938 -30.382812 25.703125 -29.46875 L 23.828125 -24.875 C 22.429688 -25.695312 20.972656 -26.316406 19.453125 -26.734375 C 17.941406 -27.160156 16.476562 -27.375 15.0625 -27.375 C 12.71875 -27.375 10.976562 -26.976562 9.84375 -26.1875 C 8.707031 -25.40625 8.140625 -24.363281 8.140625 -23.0625 C 8.140625 -22.15625 8.460938 -21.410156 9.109375 -20.828125 C 9.765625 -20.253906 10.59375 -19.800781 11.59375 -19.46875 C 12.59375 -19.132812 13.957031 -18.753906 15.6875 -18.328125 C 18.050781 -17.785156 19.988281 -17.21875 21.5 -16.625 C 23.019531 -16.03125 24.316406 -15.125 25.390625 -13.90625 C 26.472656 -12.695312 27.015625 -11.0625 27.015625 -9 C 27.015625 -7.25 26.535156 -5.660156 25.578125 -4.234375 C 24.628906 -2.804688 23.179688 -1.664062 21.234375 -0.8125 C 19.296875 0.03125 16.929688 0.453125 14.140625 0.453125 Z M 14.140625 0.453125 "/></g></g></g><g fill="#1f2122" fill-opacity="1"><g transform="translate(276.939534, 390.000001)"><g><path d="M 10.734375 -26.828125 L 0.1875 -26.828125 L 0.1875 -31.84375 L 27.203125 -31.84375 L 27.203125 -26.828125 L 16.640625 -26.828125 L 16.640625 0 L 10.734375 0 Z M 10.734375 -26.828125 "/></g></g></g><g fill="#1f2122" fill-opacity="1"><g transform="translate(324.691367, 390.000001)"><g><path d="M 4.28125 -31.84375 L 10.1875 -31.84375 L 10.1875 0 L 4.28125 0 Z M 4.28125 -31.84375 "/></g></g></g><g fill="#1f2122" fill-opacity="1"><g transform="translate(359.575521, 390.000001)"><g><path d="M 4.28125 -31.84375 L 10.1875 -31.84375 L 10.1875 -5 L 26.828125 -5 L 26.828125 0 L 4.28125 0 Z M 4.28125 -31.84375 "/></g></g></g><g fill="#1f2122" fill-opacity="1"><g transform="translate(407.190952, 390.000001)"><g><path d="M 4.28125 -31.84375 L 10.1875 -31.84375 L 10.1875 0 L 4.28125 0 Z M 4.28125 -31.84375 "/></g></g></g><g fill="#1f2122" fill-opacity="1"><g transform="translate(442.075106, 390.000001)"><g><path d="M 14.140625 0.453125 C 11.691406 0.453125 9.320312 0.101562 7.03125 -0.59375 C 4.738281 -1.289062 2.925781 -2.210938 1.59375 -3.359375 L 3.640625 -7.953125 C 4.941406 -6.921875 6.539062 -6.078125 8.4375 -5.421875 C 10.332031 -4.773438 12.234375 -4.453125 14.140625 -4.453125 C 16.503906 -4.453125 18.269531 -4.832031 19.4375 -5.59375 C 20.613281 -6.351562 21.203125 -7.351562 21.203125 -8.59375 C 21.203125 -9.507812 20.875 -10.257812 20.21875 -10.84375 C 19.5625 -11.4375 18.734375 -11.898438 17.734375 -12.234375 C 16.734375 -12.566406 15.367188 -12.945312 13.640625 -13.375 C 11.210938 -13.945312 9.25 -14.519531 7.75 -15.09375 C 6.25 -15.675781 4.960938 -16.582031 3.890625 -17.8125 C 2.816406 -19.039062 2.28125 -20.695312 2.28125 -22.78125 C 2.28125 -24.539062 2.753906 -26.140625 3.703125 -27.578125 C 4.660156 -29.023438 6.101562 -30.171875 8.03125 -31.015625 C 9.957031 -31.867188 12.3125 -32.296875 15.09375 -32.296875 C 17.039062 -32.296875 18.953125 -32.050781 20.828125 -31.5625 C 22.710938 -31.082031 24.335938 -30.382812 25.703125 -29.46875 L 23.828125 -24.875 C 22.429688 -25.695312 20.972656 -26.316406 19.453125 -26.734375 C 17.941406 -27.160156 16.476562 -27.375 15.0625 -27.375 C 12.71875 -27.375 10.976562 -26.976562 9.84375 -26.1875 C 8.707031 -25.40625 8.140625 -24.363281 8.140625 -23.0625 C 8.140625 -22.15625 8.460938 -21.410156 9.109375 -20.828125 C 9.765625 -20.253906 10.59375 -19.800781 11.59375 -19.46875 C 12.59375 -19.132812 13.957031 -18.753906 15.6875 -18.328125 C 18.050781 -17.785156 19.988281 -17.21875 21.5 -16.625 C 23.019531 -16.03125 24.316406 -15.125 25.390625 -13.90625 C 26.472656 -12.695312 27.015625 -11.0625 27.015625 -9 C 27.015625 -7.25 26.535156 -5.660156 25.578125 -4.234375 C 24.628906 -2.804688 23.179688 -1.664062 21.234375 -0.8125 C 19.296875 0.03125 16.929688 0.453125 14.140625 0.453125 Z M 14.140625 0.453125 "/></g></g></g><g fill="#1f2122" fill-opacity="1"><g transform="translate(491.054604, 390.000001)"><g><path d="M 10.734375 -26.828125 L 0.1875 -26.828125 L 0.1875 -31.84375 L 27.203125 -31.84375 L 27.203125 -26.828125 L 16.640625 -26.828125 L 16.640625 0 L 10.734375 0 Z M 10.734375 -26.828125 "/></g></g></g><g fill="#1f2122" fill-opacity="1"><g transform="translate(538.806447, 390.000001)"><g><path d="M 24.921875 -7.375 L 9 -7.375 L 5.875 0 L -0.234375 0 L 14.09375 -31.84375 L 19.921875 -31.84375 L 34.296875 0 L 28.109375 0 Z M 22.96875 -12.015625 L 16.96875 -25.921875 L 11 -12.015625 Z M 22.96875 -12.015625 "/></g></g></g><g fill="#ad7300" fill-opacity="1"><g transform="translate(217.185724, 420.877207)"><g><path d="M 11.453125 0 L 8.484375 -4.25 C 8.359375 -4.238281 8.171875 -4.234375 7.921875 -4.234375 L 4.640625 -4.234375 L 4.640625 0 L 1.953125 0 L 1.953125 -14.515625 L 7.921875 -14.515625 C 9.179688 -14.515625 10.273438 -14.304688 11.203125 -13.890625 C 12.140625 -13.472656 12.851562 -12.878906 13.34375 -12.109375 C 13.84375 -11.335938 14.09375 -10.414062 14.09375 -9.34375 C 14.09375 -8.257812 13.828125 -7.320312 13.296875 -6.53125 C 12.765625 -5.738281 12.003906 -5.148438 11.015625 -4.765625 L 14.34375 0 Z M 11.390625 -9.34375 C 11.390625 -10.269531 11.082031 -10.984375 10.46875 -11.484375 C 9.863281 -11.984375 8.972656 -12.234375 7.796875 -12.234375 L 4.640625 -12.234375 L 4.640625 -6.453125 L 7.796875 -6.453125 C 8.972656 -6.453125 9.863281 -6.703125 10.46875 -7.203125 C 11.082031 -7.710938 11.390625 -8.425781 11.390625 -9.34375 Z M 11.390625 -9.34375 "/></g></g></g><g fill="#ad7300" fill-opacity="1"><g transform="translate(240.128534, 420.877207)"><g><path d="M 8.734375 0.203125 C 7.253906 0.203125 5.914062 -0.113281 4.71875 -0.75 C 3.53125 -1.394531 2.597656 -2.285156 1.921875 -3.421875 C 1.242188 -4.566406 0.90625 -5.84375 0.90625 -7.25 C 0.90625 -8.664062 1.242188 -9.941406 1.921875 -11.078125 C 2.597656 -12.222656 3.53125 -13.113281 4.71875 -13.75 C 5.914062 -14.394531 7.253906 -14.71875 8.734375 -14.71875 C 10.210938 -14.71875 11.546875 -14.394531 12.734375 -13.75 C 13.921875 -13.113281 14.851562 -12.226562 15.53125 -11.09375 C 16.207031 -9.957031 16.546875 -8.675781 16.546875 -7.25 C 16.546875 -5.832031 16.207031 -4.554688 15.53125 -3.421875 C 14.851562 -2.285156 13.921875 -1.394531 12.734375 -0.75 C 11.546875 -0.113281 10.210938 0.203125 8.734375 0.203125 Z M 8.734375 -2.15625 C 9.703125 -2.15625 10.570312 -2.375 11.34375 -2.8125 C 12.113281 -3.25 12.71875 -3.859375 13.15625 -4.640625 C 13.601562 -5.421875 13.828125 -6.289062 13.828125 -7.25 C 13.828125 -8.21875 13.601562 -9.09375 13.15625 -9.875 C 12.71875 -10.65625 12.113281 -11.265625 11.34375 -11.703125 C 10.570312 -12.140625 9.703125 -12.359375 8.734375 -12.359375 C 7.765625 -12.359375 6.890625 -12.140625 6.109375 -11.703125 C 5.335938 -11.265625 4.726562 -10.65625 4.28125 -9.875 C 3.84375 -9.09375 3.625 -8.21875 3.625 -7.25 C 3.625 -6.289062 3.84375 -5.421875 4.28125 -4.640625 C 4.726562 -3.859375 5.335938 -3.25 6.109375 -2.8125 C 6.890625 -2.375 7.765625 -2.15625 8.734375 -2.15625 Z M 8.734375 -2.15625 "/></g></g></g><g fill="#ad7300" fill-opacity="1"><g transform="translate(265.371127, 420.877207)"><g><path d="M 11.09375 0 L 7.15625 -5.515625 L 3.25 0 L 0.1875 0 L 5.578125 -7.40625 L 0.484375 -14.515625 L 3.53125 -14.515625 L 7.234375 -9.34375 L 10.90625 -14.515625 L 13.828125 -14.515625 L 8.75 -7.5 L 14.203125 0 Z M 11.09375 0 "/></g></g></g><g fill="#ad7300" fill-opacity="1"><g transform="translate(287.52663, 420.877207)"><g><path d="M 11.359375 -3.359375 L 4.109375 -3.359375 L 2.671875 0 L -0.109375 0 L 6.421875 -14.515625 L 9.078125 -14.515625 L 15.640625 0 L 12.8125 0 Z M 10.46875 -5.46875 L 7.734375 -11.8125 L 5.015625 -5.46875 Z M 10.46875 -5.46875 "/></g></g></g><g fill="#ad7300" fill-opacity="1"><g transform="translate(310.842381, 420.877207)"><g><path d="M 14.84375 -14.515625 L 14.84375 0 L 12.625 0 L 4.625 -9.828125 L 4.625 0 L 1.953125 0 L 1.953125 -14.515625 L 4.171875 -14.515625 L 12.171875 -4.6875 L 12.171875 -14.515625 Z M 14.84375 -14.515625 "/></g></g></g><g fill="#ad7300" fill-opacity="1"><g transform="translate(335.421977, 420.877207)"><g><path d="M 11.359375 -3.359375 L 4.109375 -3.359375 L 2.671875 0 L -0.109375 0 L 6.421875 -14.515625 L 9.078125 -14.515625 L 15.640625 0 L 12.8125 0 Z M 10.46875 -5.46875 L 7.734375 -11.8125 L 5.015625 -5.46875 Z M 10.46875 -5.46875 "/></g></g></g><g fill="#ad7300" fill-opacity="1"><g transform="translate(358.737722, 420.877207)"><g/></g></g><g fill="#ad7300" fill-opacity="1"><g transform="translate(372.253457, 420.877207)"><g><path d="M 11.859375 -7.421875 L 14.40625 -7.421875 L 14.40625 -1.640625 C 13.664062 -1.046875 12.796875 -0.585938 11.796875 -0.265625 C 10.804688 0.046875 9.785156 0.203125 8.734375 0.203125 C 7.253906 0.203125 5.914062 -0.113281 4.71875 -0.75 C 3.53125 -1.394531 2.597656 -2.285156 1.921875 -3.421875 C 1.242188 -4.554688 0.90625 -5.832031 0.90625 -7.25 C 0.90625 -8.675781 1.242188 -9.957031 1.921875 -11.09375 C 2.597656 -12.226562 3.535156 -13.113281 4.734375 -13.75 C 5.929688 -14.394531 7.273438 -14.71875 8.765625 -14.71875 C 9.984375 -14.71875 11.085938 -14.515625 12.078125 -14.109375 C 13.078125 -13.710938 13.914062 -13.128906 14.59375 -12.359375 L 12.890625 -10.703125 C 11.785156 -11.804688 10.453125 -12.359375 8.890625 -12.359375 C 7.867188 -12.359375 6.957031 -12.144531 6.15625 -11.71875 C 5.363281 -11.289062 4.742188 -10.6875 4.296875 -9.90625 C 3.847656 -9.132812 3.625 -8.25 3.625 -7.25 C 3.625 -6.289062 3.847656 -5.421875 4.296875 -4.640625 C 4.742188 -3.867188 5.363281 -3.257812 6.15625 -2.8125 C 6.957031 -2.375 7.863281 -2.15625 8.875 -2.15625 C 10.007812 -2.15625 11.003906 -2.40625 11.859375 -2.90625 Z M 11.859375 -7.421875 "/></g></g></g><g fill="#ad7300" fill-opacity="1"><g transform="translate(396.045734, 420.877207)"><g><path d="M 1.953125 -14.515625 L 4.640625 -14.515625 L 4.640625 0 L 1.953125 0 Z M 1.953125 -14.515625 "/></g></g></g><g fill="#ad7300" fill-opacity="1"><g transform="translate(410.452392, 420.877207)"><g><path d="M 15.28125 0 L 15.265625 -9.625 L 10.484375 -1.65625 L 9.28125 -1.65625 L 4.515625 -9.5 L 4.515625 0 L 1.953125 0 L 1.953125 -14.515625 L 4.171875 -14.515625 L 9.9375 -4.890625 L 15.59375 -14.515625 L 17.8125 -14.515625 L 17.828125 0 Z M 15.28125 0 "/></g></g></g><g fill="#ad7300" fill-opacity="1"><g transform="translate(438.036222, 420.877207)"><g><path d="M 12.828125 -2.265625 L 12.828125 0 L 1.953125 0 L 1.953125 -14.515625 L 12.546875 -14.515625 L 12.546875 -12.25 L 4.640625 -12.25 L 4.640625 -8.484375 L 11.65625 -8.484375 L 11.65625 -6.265625 L 4.640625 -6.265625 L 4.640625 -2.265625 Z M 12.828125 -2.265625 "/></g></g></g><g fill="#ad7300" fill-opacity="1"><g transform="translate(459.715199, 420.877207)"><g><path d="M 14.84375 -14.515625 L 14.84375 0 L 12.625 0 L 4.625 -9.828125 L 4.625 0 L 1.953125 0 L 1.953125 -14.515625 L 4.171875 -14.515625 L 12.171875 -4.6875 L 12.171875 -14.515625 Z M 14.84375 -14.515625 "/></g></g></g><g fill="#ad7300" fill-opacity="1"><g transform="translate(484.294795, 420.877207)"><g><path d="M 12.828125 -2.265625 L 12.828125 0 L 1.953125 0 L 1.953125 -14.515625 L 12.546875 -14.515625 L 12.546875 -12.25 L 4.640625 -12.25 L 4.640625 -8.484375 L 11.65625 -8.484375 L 11.65625 -6.265625 L 4.640625 -6.265625 L 4.640625 -2.265625 Z M 12.828125 -2.265625 "/></g></g></g><g fill="#ad7300" fill-opacity="1"><g transform="translate(505.973772, 420.877207)"><g><path d="M 13.234375 -2.28125 L 13.234375 0 L 0.84375 0 L 0.84375 -1.796875 L 9.390625 -12.234375 L 1 -12.234375 L 1 -14.515625 L 12.953125 -14.515625 L 12.953125 -12.703125 L 4.421875 -2.28125 Z M 13.234375 -2.28125 "/></g></g></g></svg>