<svg xmlns="http://www.w3.org/2000/svg" xmlns:xlink="http://www.w3.org/1999/xlink" width="1000" zoomAndPan="magnify" viewBox="0 0 750 749.999995" height="1000" preserveAspectRatio="xMidYMid meet" version="1.0"><defs><g/><clipPath id="acd454ea9b"><path d="M 79.421875 79.421875 L 670.421875 79.421875 L 670.421875 670.421875 L 79.421875 670.421875 Z M 79.421875 79.421875 " clip-rule="nonzero"/></clipPath></defs><g clip-path="url(#acd454ea9b)"><path fill="#f6f4f1" d="M 374.921875 670.421875 C 211.980469 670.421875 79.421875 537.859375 79.421875 374.921875 C 79.421875 211.980469 211.980469 79.421875 374.921875 79.421875 C 537.859375 79.421875 670.421875 211.980469 670.421875 374.921875 C 670.421875 537.859375 537.859375 670.421875 374.921875 670.421875 Z M 374.921875 84.65625 C 214.871094 84.65625 84.65625 214.871094 84.65625 374.921875 C 84.65625 534.972656 214.871094 665.179688 374.921875 665.179688 C 534.972656 665.179688 665.179688 534.972656 665.179688 374.921875 C 665.179688 214.871094 534.972656 84.65625 374.921875 84.65625 Z M 374.921875 84.65625 " fill-opacity="1" fill-rule="nonzero"/></g><g fill="#f6f4f1" fill-opacity="1"><g transform="translate(226.796182, 442.111741)"><g><path d="M 144.09375 -77.28125 L 144.09375 -69.484375 L 134.0625 -69.265625 L 134.0625 0 L 126.9375 0 L 110.6875 -11.140625 C 104.894531 -6.535156 98.617188 -2.96875 91.859375 -0.4375 C 85.109375 2.082031 78.242188 3.34375 71.265625 3.34375 C 58.203125 3.34375 46.695312 0.335938 36.75 -5.671875 C 26.800781 -11.691406 19.078125 -20.15625 13.578125 -31.0625 C 8.085938 -41.976562 5.34375 -54.632812 5.34375 -69.03125 C 5.34375 -82.695312 7.828125 -95.613281 12.796875 -107.78125 C 17.773438 -119.957031 24.125 -129.6875 31.84375 -136.96875 C 39.414062 -141.863281 47.546875 -145.609375 56.234375 -148.203125 C 64.921875 -150.804688 73.492188 -152.109375 81.953125 -152.109375 C 93.234375 -152.109375 103.585938 -149.691406 113.015625 -144.859375 C 122.441406 -140.035156 129.90625 -133.320312 135.40625 -124.71875 L 108.015625 -101.78125 C 99.847656 -115.582031 90.566406 -130.28125 80.171875 -145.875 C 69.929688 -141.414062 61.539062 -133.171875 55 -121.140625 C 48.46875 -109.117188 45.203125 -95.460938 45.203125 -80.171875 C 45.203125 -61.316406 49.46875 -46.503906 58 -35.734375 C 66.539062 -24.972656 78.238281 -19.59375 93.09375 -19.59375 C 95.46875 -19.59375 97.25 -19.671875 98.4375 -19.828125 L 98.4375 -69.265625 L 87.515625 -69.484375 L 87.515625 -77.28125 Z M 144.09375 -77.28125 "/></g></g></g><g fill="#f6f4f1" fill-opacity="1"><g transform="translate(373.998953, 442.111741)"><g><path d="M 151 -7.796875 L 151 0 L 83.953125 0 L 83.953125 -7.796875 L 94.875 -8.015625 L 84.625 -44.546875 L 46.765625 -44.546875 L 39.421875 -8.015625 L 50.78125 -7.796875 L 50.78125 0 L 0.453125 0 L 0.453125 -7.796875 L 11.359375 -8.015625 L 61.25 -147.421875 L 88.859375 -151.21875 L 140.078125 -8.015625 Z M 82.171875 -52.78125 L 62.578125 -122.484375 L 48.546875 -52.78125 Z M 82.171875 -52.78125 "/></g></g></g></svg>